<?xml version="1.0" encoding="utf-8"?>
<!-- Generator: Adobe Illustrator 16.0.0, SVG Export Plug-In . SVG Version: 6.00 Build 0)  -->
<!DOCTYPE svg PUBLIC "-//W3C//DTD SVG 1.1//EN" "http://www.w3.org/Graphics/SVG/1.1/DTD/svg11.dtd">
<svg version="1.1" id="Layer_1" xmlns="http://www.w3.org/2000/svg" xmlns:xlink="http://www.w3.org/1999/xlink" x="0px" y="0px"
	 width="77px" height="14px" viewBox="0 0 77 14" enable-background="new 0 0 77 14" xml:space="preserve">
<g>
	<path fill="#020202" d="M0,13.781c0,0,1.187-0.298,3.271-0.771c2.088-0.454,5.061-1.158,8.646-1.902
		c3.583-0.76,7.77-1.603,12.263-2.464c2.248-0.423,4.571-0.86,6.932-1.305c2.363-0.427,4.765-0.86,7.166-1.293
		c2.405-0.411,4.811-0.821,7.178-1.226c2.365-0.415,4.704-0.766,6.961-1.136c4.518-0.722,8.742-1.355,12.369-1.86
		c3.623-0.523,6.659-0.871,8.776-1.156c2.121-0.265,3.338-0.388,3.338-0.388s-1.187,0.298-3.271,0.772
		c-2.088,0.454-5.061,1.16-8.646,1.903C61.4,3.715,57.213,4.56,52.72,5.419c-2.249,0.42-4.566,0.888-6.932,1.303
		c-2.364,0.426-4.765,0.859-7.166,1.292c-2.405,0.411-4.81,0.821-7.178,1.226c-2.371,0.386-4.704,0.767-6.961,1.135
		c-4.518,0.721-8.742,1.354-12.369,1.859c-3.624,0.522-6.659,0.873-8.776,1.157C1.217,13.657,0,13.781,0,13.781z"/>
</g>
</svg>
