<?xml version="1.0" encoding="utf-8"?>
<!-- Generator: Adobe Illustrator 16.0.0, SVG Export Plug-In . SVG Version: 6.00 Build 0)  -->
<!DOCTYPE svg PUBLIC "-//W3C//DTD SVG 1.1//EN" "http://www.w3.org/Graphics/SVG/1.1/DTD/svg11.dtd">
<svg version="1.1" id="Layer_1" xmlns="http://www.w3.org/2000/svg" xmlns:xlink="http://www.w3.org/1999/xlink" x="0px" y="0px"
	 width="16px" height="19px" viewBox="0 0 16 19" enable-background="new 0 0 16 19" xml:space="preserve">
<path fill="#079992" d="M11.64,11.64c-0.036,0.41-0.096,0.8-0.208,1.147c-0.166,0.515-0.407,0.951-0.723,1.31
	s-0.7,0.631-1.155,0.823c-0.456,0.191-0.975,0.287-1.553,0.287c-0.579,0-1.098-0.096-1.554-0.287
	c-0.455-0.192-0.842-0.469-1.157-0.83c-0.314-0.361-0.555-0.801-0.721-1.315c-0.11-0.344-0.171-0.729-0.208-1.135H0.025
	c0.056,0.905,0.226,1.753,0.524,2.534c0.367,0.953,0.895,1.775,1.585,2.466c0.689,0.69,1.528,1.226,2.517,1.61
	c0.989,0.383,2.105,0.574,3.35,0.574c1.234,0,2.348-0.191,3.336-0.574c0.986-0.385,1.826-0.92,2.517-1.61
	c0.689-0.69,1.22-1.513,1.59-2.466c0.304-0.781,0.477-1.629,0.531-2.534H11.64z"/>
<rect x="11.681" y="0" fill="#079992" width="4.319" height="6.99"/>
<rect y="0" fill="#079992" width="4.319" height="6.99"/>
</svg>
