<?xml version="1.0" encoding="utf-8"?>
<!-- Generator: Adobe Illustrator 16.0.0, SVG Export Plug-In . SVG Version: 6.00 Build 0)  -->
<!DOCTYPE svg PUBLIC "-//W3C//DTD SVG 1.1//EN" "http://www.w3.org/Graphics/SVG/1.1/DTD/svg11.dtd">
<svg version="1.1" id="Layer_1" xmlns="http://www.w3.org/2000/svg" xmlns:xlink="http://www.w3.org/1999/xlink" x="0px" y="0px"
	 width="32px" height="32px" viewBox="0 0 32 32" enable-background="new 0 0 32 32" xml:space="preserve">
<path fill="#FFFFFF" d="M12.061,3.944c1.359,0.253,2.694,0.615,4.024,0.992c0.76,0.221,1.519,0.45,2.273,0.693
	c1.182,0.377,2.361,0.804,3.432,1.44c0.482,0.292,0.943,0.621,1.336,1.023c0.428,0.417,0.777,0.912,1.033,1.451
	c0.467,0.976,0.627,2.066,0.676,3.139c0.021,0.699,0.021,1.405-0.111,2.095c-0.107,0.6-0.301,1.192-0.623,1.713
	c-0.281,0.461-0.676,0.859-1.154,1.115c-0.459,0.248-0.984,0.366-1.504,0.355c-0.789,0.008-1.557-0.243-2.264-0.573
	c-0.014-2.355-0.002-4.711-0.006-7.065c-0.006-0.427,0.023-0.857-0.061-1.277c-0.062-0.326-0.195-0.654-0.449-0.875
	c-0.17-0.153-0.391-0.239-0.611-0.286c-0.223-0.043-0.461,0.052-0.6,0.232c-0.23,0.287-0.289,0.668-0.301,1.026
	c-0.002,6.305,0.002,12.61-0.002,18.914c-1.696-0.537-3.392-1.074-5.088-1.613C12.058,18.942,12.06,11.443,12.061,3.944"/>
<path fill="#FFFFFF" d="M4.437,19.899c2.211-0.783,4.42-1.573,6.633-2.354c0.003,0.868,0,1.736,0.001,2.605
	c-0.001,0.117,0.006,0.236-0.009,0.353c-1.748,0.62-3.493,1.251-5.24,1.875c-0.242,0.091-0.491,0.195-0.678,0.38
	c-0.086,0.086-0.157,0.215-0.11,0.34c0.06,0.146,0.21,0.226,0.347,0.285c0.384,0.156,0.802,0.178,1.211,0.197
	c0.455-0.007,0.912-0.042,1.358-0.141c0.301-0.059,0.591-0.16,0.878-0.269c0.747-0.271,1.493-0.542,2.241-0.809
	c0.005,0.733,0.001,1.469,0.002,2.204c-0.002,0.146,0.007,0.295-0.008,0.44c-0.918,0.165-1.847,0.277-2.78,0.292
	c-1.879,0.042-3.763-0.249-5.548-0.836c-0.585-0.17-1.167-0.395-1.656-0.767c-0.269-0.208-0.51-0.47-0.632-0.792
	c-0.103-0.273-0.095-0.588,0.032-0.852c0.124-0.263,0.339-0.471,0.576-0.632c0.549-0.379,1.154-0.668,1.767-0.925
	C3.35,20.271,3.897,20.097,4.437,19.899"/>
<path fill="#FFFFFF" d="M22.229,18.91c0.502-0.058,1.006-0.072,1.51-0.09c1.66,0.006,3.326,0.213,4.914,0.71
	c0.311,0.095,0.613,0.218,0.922,0.316c0.555,0.201,1.107,0.446,1.551,0.844c0.266,0.242,0.494,0.57,0.498,0.943
	c0.016,0.303-0.123,0.594-0.32,0.819c-0.375,0.42-0.869,0.709-1.367,0.961c-0.529,0.271-1.098,0.444-1.654,0.649
	c-3.389,1.217-6.779,2.434-10.168,3.652c0-0.949,0-1.898,0-2.848c0.006-0.038-0.016-0.104,0.037-0.114
	c2.58-0.918,5.158-1.838,7.736-2.758c0.348-0.13,0.725-0.226,1.02-0.461c0.121-0.095,0.24-0.246,0.182-0.41
	c-0.062-0.142-0.211-0.221-0.348-0.28c-0.385-0.152-0.807-0.183-1.217-0.193c-0.643,0.004-1.291,0.084-1.902,0.289
	c-1.836,0.644-3.67,1.296-5.508,1.937c0-1.019,0-2.038,0-3.057C19.443,19.354,20.832,19.071,22.229,18.91"/>
</svg>
