<?xml version="1.0" encoding="utf-8"?>
<!-- Generator: Adobe Illustrator 16.0.0, SVG Export Plug-In . SVG Version: 6.00 Build 0)  -->
<!DOCTYPE svg PUBLIC "-//W3C//DTD SVG 1.1//EN" "http://www.w3.org/Graphics/SVG/1.1/DTD/svg11.dtd">
<svg version="1.1" id="Layer_1" xmlns="http://www.w3.org/2000/svg" xmlns:xlink="http://www.w3.org/1999/xlink" x="0px" y="0px"
	 width="21px" height="21px" viewBox="0 0 21 21" enable-background="new 0 0 21 21" xml:space="preserve">
<path fill="#04615C" d="M15.726,7.84c0-4.33-3.51-7.84-7.839-7.84S0.048,3.51,0.048,7.84c0,4.329,3.51,7.839,7.839,7.839
	S15.726,12.169,15.726,7.84 M7.887,13.719c-3.242,0-5.88-2.637-5.88-5.879c0-3.243,2.638-5.88,5.88-5.88s5.879,2.637,5.879,5.88
	C13.766,11.082,11.129,13.719,7.887,13.719"/>
<path fill="#04615C" d="M20.378,17.56l-4.796-4.796c-0.715,1.111-1.66,2.057-2.771,2.771l4.797,4.797
	c0.765,0.766,2.007,0.766,2.771,0C21.145,19.566,21.145,18.325,20.378,17.56"/>
</svg>
