<?xml version="1.0" encoding="utf-8"?>
<!-- Generator: Adobe Illustrator 16.0.0, SVG Export Plug-In . SVG Version: 6.00 Build 0)  -->
<!DOCTYPE svg PUBLIC "-//W3C//DTD SVG 1.1//EN" "http://www.w3.org/Graphics/SVG/1.1/DTD/svg11.dtd">
<svg version="1.1" id="Layer_1" xmlns="http://www.w3.org/2000/svg" xmlns:xlink="http://www.w3.org/1999/xlink" x="0px" y="0px"
	 width="32px" height="32px" viewBox="0 0 32 32" enable-background="new 0 0 32 32" xml:space="preserve">
<path fill="#FFFFFF" d="M6.794,6.777C6.784,6.784,6.78,6.789,6.782,6.788v0.001c-2.409,2.379-3.903,5.682-3.903,9.336
	c0,2.989,1,5.742,2.682,7.948c0.018,0.022,0.045,0.034,0.07,0.022c0.023-0.014,0.025-0.043,0.015-0.068
	c-1-3.092,4.113-10.589,6.755-13.732c0.008-0.011,0.019-0.023,0.019-0.039c0-0.018-0.012-0.031-0.025-0.042
	c-4.444-4.423-5.63-3.412-5.613-3.426"/>
<path fill="#FFFFFF" d="M25.206,6.777c0.01,0.007,0.013,0.012,0.013,0.012c2.409,2.379,3.901,5.682,3.901,9.336
	c0,2.989-1,5.742-2.682,7.948c-0.018,0.022-0.046,0.034-0.07,0.022c-0.021-0.014-0.023-0.043-0.016-0.068
	c1.001-3.092-4.107-10.595-6.749-13.739c-0.009-0.011-0.019-0.023-0.019-0.037c0-0.019,0.011-0.033,0.024-0.044
	c4.445-4.423,5.623-3.405,5.608-3.419"/>
<path fill="#FFFFFF" d="M16,3.004c2.647,0,4.826,0.726,6.834,1.92c0.024,0.013,0.031,0.04,0.022,0.065
	c-0.011,0.024-0.038,0.029-0.063,0.022c-2.541-0.549-6.402,1.646-6.766,1.866C16.02,6.882,16.011,6.888,16,6.888
	c-0.012,0-0.021-0.006-0.029-0.011c-0.968-0.556-4.538-2.427-6.785-1.852C9.161,5.031,9.134,5.027,9.123,5.002
	c-0.01-0.024-0.002-0.051,0.022-0.065C11.153,3.73,13.359,3.004,16,3.004"/>
<path fill="#FFFFFF" d="M16,13.527c0.015,0,0.032,0.012,0.041,0.021c3.927,2.985,10.647,10.366,8.595,12.454L24.64,26
	c-0.002,0-0.002,0.002-0.002,0.002h-0.002c-2.308,2.02-5.328,3.246-8.637,3.246s-6.33-1.227-8.638-3.246
	c0,0-0.002-0.002-0.003-0.002l0.003,0.002c-2.048-2.088,4.671-9.468,8.593-12.454C15.966,13.54,15.983,13.527,16,13.527"/>
</svg>
